<svg width="1200" height="520" viewBox="0 0 1200 520" fill="none" xmlns="http://www.w3.org/2000/svg">
  <defs>
    <linearGradient id="bg" x1="0" y1="0" x2="1200" y2="520" gradientUnits="userSpaceOnUse">
      <stop offset="0" stop-color="#030712"/>
      <stop offset="0.48" stop-color="#061827"/>
      <stop offset="1" stop-color="#160B2F"/>
    </linearGradient>
    <linearGradient id="neon" x1="0" y1="0" x2="1200" y2="0" gradientUnits="userSpaceOnUse">
      <stop offset="0" stop-color="#00E5FF"/>
      <stop offset="0.5" stop-color="#7C3AED"/>
      <stop offset="1" stop-color="#FF2BD6"/>
    </linearGradient>
    <radialGradient id="halo" cx="0" cy="0" r="1" gradientUnits="userSpaceOnUse" gradientTransform="translate(833 230) rotate(90) scale(210 290)">
      <stop offset="0" stop-color="#00E5FF" stop-opacity="0.25"/>
      <stop offset="0.45" stop-color="#7C3AED" stop-opacity="0.12"/>
      <stop offset="1" stop-color="#000" stop-opacity="0"/>
    </radialGradient>
    <filter id="glow" x="-50%" y="-50%" width="200%" height="200%">
      <feGaussianBlur stdDeviation="4" result="blur"/>
      <feColorMatrix in="blur" type="matrix" values="0 0 0 0 0  0 0 0 0 .85  0 0 0 0 1  0 0 0 .75 0" result="coloredBlur"/>
      <feMerge><feMergeNode in="coloredBlur"/><feMergeNode in="SourceGraphic"/></feMerge>
    </filter>
    <pattern id="grid" width="28" height="28" patternUnits="userSpaceOnUse">
      <path d="M 28 0 L 0 0 0 28" stroke="#22D3EE" stroke-width="0.55" opacity="0.13"/>
    </pattern>
    <style>
      .h1{font:800 36px 'Segoe UI',Ubuntu,sans-serif;letter-spacing:3px;fill:#E6FBFF}
      .h2{font:700 18px 'Segoe UI',Ubuntu,sans-serif;letter-spacing:2px;fill:#8BE9FD}
      .label{font:700 13px 'Fira Code',Consolas,monospace;letter-spacing:1px;fill:#7DD3FC}
      .mono{font:600 16px 'Fira Code',Consolas,monospace;fill:#DFFBFF}
      .muted{font:500 13px 'Fira Code',Consolas,monospace;fill:#91BFD1}
      .tiny{font:500 11px 'Fira Code',Consolas,monospace;fill:#6EE7F9}
      .panel{fill:rgba(8,17,31,.76);stroke:url(#neon);stroke-width:1.3}
      .panel2{fill:rgba(3,7,18,.62);stroke:#22D3EE;stroke-width:1;opacity:.95}
      .scan{animation:scan 4.2s ease-in-out infinite}
      .pulse{animation:pulse 2.6s ease-in-out infinite;transform-origin:center}
      .blink{animation:blink 1.1s steps(2,end) infinite}
      .dash{stroke-dasharray:7 11;animation:dash 18s linear infinite}
      @keyframes scan{0%,100%{transform:translateY(0);opacity:.18}50%{transform:translateY(244px);opacity:.46}}
      @keyframes pulse{0%,100%{opacity:.52;transform:scale(1)}50%{opacity:1;transform:scale(1.08)}}
      @keyframes blink{50%{opacity:.25}}
      @keyframes dash{to{stroke-dashoffset:-260}}
    </style>
  </defs>

  <rect width="1200" height="520" rx="30" fill="url(#bg)"/>
  <rect width="1200" height="520" rx="30" fill="url(#grid)"/>
  <rect width="1200" height="520" rx="30" fill="url(#halo)"/>
  <rect x="20" y="20" width="1160" height="480" rx="24" stroke="url(#neon)" stroke-width="2" opacity=".72"/>
  <rect x="42" y="42" width="1116" height="436" rx="18" stroke="#00E5FF" stroke-width="1" opacity=".2"/>

  <text x="70" y="78" class="h2">ABEL // AI ENGINEERING COMMAND CENTER</text>
  <text x="70" y="118" class="h1">Identity Core Online</text>
  <text x="70" y="148" class="muted">Building reliable AI software from research prototype to production runtime.</text>

  <g transform="translate(70 182)">
    <rect class="panel" width="520" height="250" rx="18"/>
    <rect x="16" y="16" width="488" height="218" rx="12" fill="#020617" opacity=".78"/>
    <circle cx="38" cy="38" r="6" fill="#FF5F57"/><circle cx="60" cy="38" r="6" fill="#FFBD2E"/><circle cx="82" cy="38" r="6" fill="#28C840"/>
    <text x="22" y="78" class="mono">$ whoami --profile --stack</text><text x="298" y="78" class="mono blink">_</text>
    <text x="22" y="112" class="muted">NAME</text><text x="130" y="112" class="mono">Abel XiaoXing</text>
    <text x="22" y="140" class="muted">FOCUS</text><text x="130" y="140" class="mono">AI Agent · Vision · 3D · Edge AI</text>
    <text x="22" y="168" class="muted">STACK</text><text x="130" y="168" class="mono">Python · CUDA · Linux · PyTorch · TensorRT</text>
    <text x="22" y="196" class="muted">MISSION</text><text x="130" y="196" class="mono">Make AI systems useful, stable, reproducible.</text>
    <path d="M22 215H484" stroke="#00E5FF" opacity=".22"/>
    <text x="22" y="232" class="tiny">STATUS: ONLINE · MODE: RESEARCH_TO_PRODUCT · SIGNAL: ALWAYS_BUILDING</text>
    <rect class="scan" x="17" y="20" width="486" height="2" fill="#00E5FF" opacity=".25"/>
  </g>

  <g transform="translate(640 110)">
    <circle cx="260" cy="150" r="132" stroke="#123B55" stroke-width="1.2"/>
    <circle cx="260" cy="150" r="96" stroke="#185E76" stroke-width="1" opacity=".9"/>
    <circle cx="260" cy="150" r="56" stroke="#22D3EE" stroke-width="1" opacity=".62"/>
    <path class="dash" d="M260 18 A132 132 0 1 1 259 18" stroke="url(#neon)" stroke-width="2" opacity=".75" filter="url(#glow)"/>
    <path class="dash" d="M128 150 H392 M260 18 V282 M166 56 L354 244 M354 56 L166 244" stroke="#00E5FF" opacity=".24"/>
    <circle class="pulse" cx="260" cy="150" r="16" fill="#00E5FF" filter="url(#glow)"/>
    <circle cx="184" cy="78" r="7" fill="#FF2BD6" filter="url(#glow)"/>
    <circle cx="345" cy="110" r="6" fill="#7C3AED" filter="url(#glow)"/>
    <circle cx="310" cy="222" r="7" fill="#00E5FF" filter="url(#glow)"/>
    <circle cx="172" cy="214" r="5" fill="#8BE9FD" filter="url(#glow)"/>
    <text x="260" y="146" text-anchor="middle" class="label">SYSTEM</text>
    <text x="260" y="168" text-anchor="middle" class="h2">ONLINE</text>
  </g>

  <g transform="translate(648 398)">
    <rect class="panel2" width="142" height="54" rx="14"/><text x="18" y="24" class="label">AGENT</text><text x="18" y="42" class="tiny">RAG / Tools</text>
    <rect class="panel2" x="160" width="142" height="54" rx="14"/><text x="178" y="24" class="label">VISION</text><text x="178" y="42" class="tiny">CV / TS</text>
    <rect class="panel2" x="320" width="142" height="54" rx="14"/><text x="338" y="24" class="label">RUNTIME</text><text x="338" y="42" class="tiny">ONNX / GPU</text>
  </g>

  <text x="70" y="462" class="tiny">~/profile $ ship --automation --observability --performance --human-centered-ai</text>
  <text x="1130" y="462" text-anchor="end" class="tiny">LAST BUILD: GREEN</text>
</svg>
